<mxfile host="app.diagrams.net" agent="Mozilla/5.0 (Windows NT 10.0; Win64; x64) AppleWebKit/537.36 (KHTML, like Gecko) Chrome/133.0.0.0 Safari/537.36" version="26.0.11">
  <diagram name="Page-1" id="JyC22ue7PZHol_kOIZ8C">
    <mxGraphModel dx="724" dy="457" grid="1" gridSize="10" guides="1" tooltips="1" connect="1" arrows="1" fold="1" page="1" pageScale="1" pageWidth="827" pageHeight="1169" math="0" shadow="0">
      <root>
        <mxCell id="0" />
        <mxCell id="1" parent="0" />
        <mxCell id="u6SsSra23x6l_tU2cbuN-1" value="User" style="shape=umlActor;verticalLabelPosition=bottom;verticalAlign=top;html=1;outlineConnect=0;" vertex="1" parent="1">
          <mxGeometry x="170" y="280" width="30" height="60" as="geometry" />
        </mxCell>
        <mxCell id="u6SsSra23x6l_tU2cbuN-2" value="" style="rounded=0;whiteSpace=wrap;html=1;" vertex="1" parent="1">
          <mxGeometry x="220" y="100" width="420" height="640" as="geometry" />
        </mxCell>
        <mxCell id="u6SsSra23x6l_tU2cbuN-3" value="Login" style="ellipse;whiteSpace=wrap;html=1;" vertex="1" parent="1">
          <mxGeometry x="230" y="170" width="80" height="30" as="geometry" />
        </mxCell>
        <mxCell id="u6SsSra23x6l_tU2cbuN-4" value="Sign up" style="ellipse;whiteSpace=wrap;html=1;" vertex="1" parent="1">
          <mxGeometry x="230" y="130" width="80" height="30" as="geometry" />
        </mxCell>
        <mxCell id="u6SsSra23x6l_tU2cbuN-15" style="rounded=0;orthogonalLoop=1;jettySize=auto;html=1;entryX=0;entryY=0.5;entryDx=0;entryDy=0;dashed=1;endArrow=none;startFill=1;startArrow=classic;" edge="1" parent="1" source="u6SsSra23x6l_tU2cbuN-5" target="u6SsSra23x6l_tU2cbuN-6">
          <mxGeometry relative="1" as="geometry" />
        </mxCell>
        <mxCell id="u6SsSra23x6l_tU2cbuN-16" value="&amp;lt;&amp;lt;extend&amp;gt;&amp;gt;" style="edgeLabel;html=1;align=center;verticalAlign=middle;resizable=0;points=[];" vertex="1" connectable="0" parent="u6SsSra23x6l_tU2cbuN-15">
          <mxGeometry x="0.0946" relative="1" as="geometry">
            <mxPoint as="offset" />
          </mxGeometry>
        </mxCell>
        <mxCell id="u6SsSra23x6l_tU2cbuN-5" value="Document manage" style="ellipse;whiteSpace=wrap;html=1;" vertex="1" parent="1">
          <mxGeometry x="270" y="295" width="116" height="30" as="geometry" />
        </mxCell>
        <mxCell id="u6SsSra23x6l_tU2cbuN-6" value="Add doc" style="ellipse;whiteSpace=wrap;html=1;" vertex="1" parent="1">
          <mxGeometry x="436" y="240" width="116" height="30" as="geometry" />
        </mxCell>
        <mxCell id="u6SsSra23x6l_tU2cbuN-8" value="Remove doc" style="ellipse;whiteSpace=wrap;html=1;" vertex="1" parent="1">
          <mxGeometry x="436" y="280" width="116" height="30" as="geometry" />
        </mxCell>
        <mxCell id="u6SsSra23x6l_tU2cbuN-9" value="Update doc&amp;nbsp;&lt;div&gt;(info, content)&lt;/div&gt;" style="ellipse;whiteSpace=wrap;html=1;" vertex="1" parent="1">
          <mxGeometry x="436" y="320" width="116" height="30" as="geometry" />
        </mxCell>
        <mxCell id="u6SsSra23x6l_tU2cbuN-11" value="View doc" style="ellipse;whiteSpace=wrap;html=1;" vertex="1" parent="1">
          <mxGeometry x="436" y="360" width="116" height="30" as="geometry" />
        </mxCell>
        <mxCell id="u6SsSra23x6l_tU2cbuN-18" value="Chatbot" style="ellipse;whiteSpace=wrap;html=1;" vertex="1" parent="1">
          <mxGeometry x="270" y="470" width="116" height="30" as="geometry" />
        </mxCell>
        <mxCell id="u6SsSra23x6l_tU2cbuN-19" value="Q&amp;amp;A based on doc" style="ellipse;whiteSpace=wrap;html=1;" vertex="1" parent="1">
          <mxGeometry x="436" y="460" width="116" height="30" as="geometry" />
        </mxCell>
        <mxCell id="u6SsSra23x6l_tU2cbuN-20" value="Search" style="ellipse;whiteSpace=wrap;html=1;" vertex="1" parent="1">
          <mxGeometry x="270" y="580" width="116" height="30" as="geometry" />
        </mxCell>
        <mxCell id="u6SsSra23x6l_tU2cbuN-21" value="Search paragraph by similarity" style="ellipse;whiteSpace=wrap;html=1;" vertex="1" parent="1">
          <mxGeometry x="414" y="580" width="116" height="30" as="geometry" />
        </mxCell>
        <mxCell id="u6SsSra23x6l_tU2cbuN-23" value="Search by keyword" style="ellipse;whiteSpace=wrap;html=1;" vertex="1" parent="1">
          <mxGeometry x="410" y="620" width="116" height="30" as="geometry" />
        </mxCell>
        <mxCell id="u6SsSra23x6l_tU2cbuN-25" value="Auto category" style="ellipse;whiteSpace=wrap;html=1;" vertex="1" parent="1">
          <mxGeometry x="526" y="250" width="116" height="30" as="geometry" />
        </mxCell>
        <mxCell id="u6SsSra23x6l_tU2cbuN-26" value="Update category" style="ellipse;whiteSpace=wrap;html=1;" vertex="1" parent="1">
          <mxGeometry x="524" y="220" width="116" height="30" as="geometry" />
        </mxCell>
      </root>
    </mxGraphModel>
  </diagram>
</mxfile>
